<svg width="18" height="18" viewBox="0 0 18 18" fill="none" xmlns="http://www.w3.org/2000/svg">
<path d="M11 4C11 3.06812 11 2.60218 10.8478 2.23463C10.6448 1.74458 10.2554 1.35523 9.7654 1.15224C9.3978 1 8.9319 1 8 1H5C3.11438 1 2.17157 1 1.58579 1.58579C1 2.17157 1 3.11438 1 5V8C1 8.9319 1 9.3978 1.15224 9.7654C1.35523 10.2554 1.74458 10.6448 2.23463 10.8478C2.60218 11 3.06812 11 4 11M9 7H15C16.1046 7 17 7.89543 17 9V15C17 16.1046 16.1046 17 15 17H9C7.89543 17 7 16.1046 7 15V9C7 7.89543 7.89543 7 9 7Z" stroke="#FFFFFF"/>
</svg>
